<svg xmlns="http://www.w3.org/2000/svg" viewBox="0 0 128 128"><defs><style>.cls-1{fill:#d6e1ea;}.Graphic-Style-3{fill:#a6caff;}.Graphic-Style-5{fill:#fff;}.cls-2{fill:none;stroke:#2a457f;stroke-linecap:round;stroke-linejoin:round;stroke-width:4px;}</style></defs><title>growth</title><g id="circles"><circle class="cls-1" cx="64" cy="64" r="54"/></g><g id="icons"><rect class="Graphic-Style-3" x="42" y="84" width="44" height="8" rx="2" ry="2"/><path class="Graphic-Style-5" d="M76.284,118H51.716a2,2,0,0,1-1.977-1.7L46,92H82l-3.739,24.3A2,2,0,0,1,76.284,118Z"/><path class="Graphic-Style-3" d="M75.931,15.931A20.373,20.373,0,0,0,71.09,36.91,20.312,20.312,0,0,0,96.91,11.09,20.373,20.373,0,0,0,75.931,15.931Z"/><path class="Graphic-Style-5" d="M48.916,43.084a17.462,17.462,0,0,0-17.982-4.15A17.41,17.41,0,0,0,53.066,61.066,17.462,17.462,0,0,0,48.916,43.084Z"/><path class="Graphic-Style-5" d="M74.389,56.389a11.642,11.642,0,0,0-2.767,11.988A11.607,11.607,0,0,0,86.377,53.623,11.642,11.642,0,0,0,74.389,56.389Z"/><path class="cls-2" d="M64,92H44a2.006,2.006,0,0,1-2-2V86a2.006,2.006,0,0,1,2-2H84a2.006,2.006,0,0,1,2,2v4a2.006,2.006,0,0,1-2,2H74"/><line class="cls-2" x1="82" y1="92" x2="80.92" y2="99"/><path class="cls-2" d="M46,92l3.74,24.3a2,2,0,0,0,1.98,1.7H54"/><path class="cls-2" d="M62,118H76.28a2,2,0,0,0,1.98-1.7l1.12-7.3"/><line class="cls-2" x1="64" y1="51" x2="64" y2="32"/><line class="cls-2" x1="64" y1="84" x2="64" y2="61"/><path class="cls-2" d="M75.2,16.7c.24-.26.48-.52.73-.77a20.367,20.367,0,0,1,20.98-4.84A20.31,20.31,0,0,1,71.09,36.91a20.579,20.579,0,0,1-.22-12.54"/><path class="cls-2" d="M45.15,61.85a17.492,17.492,0,0,0,7.92-.78A17.415,17.415,0,0,0,30.93,38.93a17.486,17.486,0,0,0,4.15,17.99,14.986,14.986,0,0,0,1.6,1.4"/><path class="cls-2" d="M74.389,56.389a11.642,11.642,0,0,0-2.767,11.988A11.607,11.607,0,0,0,86.377,53.623,11.642,11.642,0,0,0,74.389,56.389Z"/><line class="cls-2" x1="53" y1="61" x2="63.5" y2="71.5"/><line class="cls-2" x1="71" y1="37" x2="64" y2="44"/><line class="cls-2" x1="71" y1="69" x2="64" y2="76"/></g></svg>